<svg xmlns="http://www.w3.org/2000/svg" width="45px" height="45px" viewBox="0 0 91.666 91.66">
  <path id="Path_401" data-name="Path 401" d="M595.1,2262.44c4.888-.22,6.446-.27,18.9-.27s14.008.05,18.892.27a33.682,33.682,0,0,1,11.133,2.13,23.456,23.456,0,0,1,13.4,13.4,33.741,33.741,0,0,1,2.133,11.13c.225,4.9.275,6.45.275,18.9s-.054,14.01-.275,18.9a33.627,33.627,0,0,1-2.133,11.12,23.38,23.38,0,0,1-13.4,13.4,33.645,33.645,0,0,1-11.125,2.14c-4.892.22-6.45.27-18.9.27s-14.008-.05-18.9-.27a33.389,33.389,0,0,1-11.125-2.14,23.394,23.394,0,0,1-13.408-13.4,33.79,33.79,0,0,1-2.129-11.12c-.225-4.9-.275-6.45-.275-18.9s.054-14.01.275-18.89a33.739,33.739,0,0,1,2.129-11.14,23.509,23.509,0,0,1,13.4-13.4,33.932,33.932,0,0,1,11.125-2.13Zm37.417,8.25c-4.834-.22-6.284-.27-18.521-.27s-13.688.05-18.521.27a25.444,25.444,0,0,0-8.512,1.58,15.165,15.165,0,0,0-8.7,8.7,25.282,25.282,0,0,0-1.579,8.51c-.221,4.83-.267,6.28-.267,18.52s.046,13.69.267,18.52a25.282,25.282,0,0,0,1.579,8.51,15.165,15.165,0,0,0,8.7,8.7,25.444,25.444,0,0,0,8.512,1.58c4.833.22,6.279.26,18.521.26s13.687-.04,18.521-.26a25.444,25.444,0,0,0,8.512-1.58,15.165,15.165,0,0,0,8.7-8.7,25.282,25.282,0,0,0,1.579-8.51c.221-4.83.267-6.28.267-18.52s-.046-13.69-.267-18.52a25.282,25.282,0,0,0-1.579-8.51,15.165,15.165,0,0,0-8.7-8.7A25.444,25.444,0,0,0,632.521,2270.69Zm-24.375,51.44a15.295,15.295,0,1,0-5.476-3.86A15.321,15.321,0,0,0,608.146,2322.13Zm-10.8-30.79a23.563,23.563,0,1,1-6.9,16.66A23.608,23.608,0,0,1,597.342,2291.34Zm45.441-3.39a5.564,5.564,0,0,0,.117-7.99,5.521,5.521,0,0,0-1.845-1.22,5.57,5.57,0,1,0,1.728,9.21Z" transform="translate(-568.167 -2262.17)" fill="#3d1673" fill-rule="evenodd"/>
</svg>
