<?xml version="1.0" encoding="utf-8"?>
<!-- Generator: Adobe Illustrator 26.3.1, SVG Export Plug-In . SVG Version: 6.00 Build 0)  -->
<svg version="1.1" id="uuid-f5f8eb55-3e7e-4a5f-9358-70adc1a1af8a"
	 xmlns="http://www.w3.org/2000/svg" xmlns:xlink="http://www.w3.org/1999/xlink" x="0px" y="0px" viewBox="0 0 70.8 71.6"
	 style="enable-background:new 0 0 70.8 71.6;" xml:space="preserve">
<style type="text/css">
	.st0{fill:#101C26;}
	.st1{fill:none;stroke:#101C26;stroke-miterlimit:10;}
	.st2{fill:#6E46A6;}
</style>
<g id="uuid-ef15a690-6b65-4c87-abc4-a313de3180c5" transform="translate(-524 -1551)">
	<g id="uuid-12c8e98a-01f5-475c-ad18-2417c6cd6d95" transform="translate(524 1551)">
		<rect x="0.4" y="0.4" class="st0" width="70" height="70.8"/>
		<rect x="0.5" y="0.5" class="st1" width="69.8" height="70.6"/>
	</g>
	<g id="uuid-52879d28-3dbb-4b57-908a-de92f3836525" transform="translate(697.378 1726.859)">
		<g id="uuid-59bca9f2-b759-45a5-972f-a1fa72c80292" transform="translate(-172.378 -175.859)">
			<path id="uuid-d90e51f2-9112-4006-9bc5-576acba9050b" class="st2" d="M34.2,65.4c-3.3,1.8-6.6,3.7-9.9,5.5L9.6,53.1l10.3,1.5
				c1.8,0.3,3.6,0.5,5.4,0.8c0.3,0,0.6,0.2,0.9,0.4c2.7,3.1,5.3,6.2,7.9,9.3C34.1,65.2,34.1,65.3,34.2,65.4L34.2,65.4z"/>
			<path id="uuid-1e91a51d-0382-4c27-af7e-181405493184" class="st2" d="M48.2,60.9l4.8-2.7c2.3-1.3,4.7-2.6,7-3.9
				c0.3-0.2,0.6-0.2,0.9-0.2c3,0.6,6,1.2,9.1,1.9l-14,14.7C55.9,70.8,48.2,60.9,48.2,60.9z"/>
			<path id="uuid-9d225f22-3f00-46b1-adb3-94980c69a2e3" class="st2" d="M38.2,12.9L49.5,0.4l12.3,7.9c-0.3,0.1-0.4,0.2-0.6,0.3
				c-4,1.4-8,2.9-11.9,4.3c-0.3,0.1-0.6,0.2-0.9,0.2c-3.2,0-6.5-0.1-9.7-0.1C38.5,12.9,38.4,12.9,38.2,12.9L38.2,12.9z"/>
			<path id="uuid-88e8958e-c705-4b1c-9499-80e66ec8a281" class="st2" d="M14.1,25.5l18.5,8.3c-0.1,0.2-0.2,0.4-0.2,0.6
				c-1.6,3.2-3.3,6.3-4.9,9.5c-0.2,0.4-0.5,0.5-0.9,0.5c-1.5-0.1-2.2-0.9-2.9-2.1c-3-5.4-6.1-10.7-9.2-16c-0.1-0.2-0.2-0.4-0.3-0.6
				L14.1,25.5z"/>
			<path id="uuid-873d8f09-39d1-404c-8236-7fb515d5c9e4" class="st2" d="M54.2,52.3c-1.1,0.1-2.1,0.2-3.2,0.4
				c-3.8,0.4-7.7,0.8-11.5,1.3c-3.1,0.3-6.2,0.7-9.4,1c-0.2,0-0.5-0.1-0.6-0.2c-2.6-3.1-5.2-6.1-7.8-9.2c0,0,0-0.1,0-0.2l32.5,6.8
				L54.2,52.3L54.2,52.3z"/>
			<path id="uuid-963c7351-01d0-4bcd-b328-9ee3307a0fb6" class="st2" d="M24.4,52.9c-1.4-0.2-2.6-0.4-3.8-0.5
				c-3.7-0.5-7.5-1.1-11.2-1.7c-0.8-0.1-1.4-0.3-1.9-1c-2.1-2.6-4.2-5.2-6.3-7.7c-0.2-0.2-0.3-0.5-0.6-0.8c1.6,0.3,3.1,0.6,4.6,1
				c3.8,0.8,7.6,1.6,11.4,2.4c0.6,0.1,1.1,0.4,1.5,0.9c1.8,2.2,3.6,4.3,5.5,6.5C23.8,52.1,24,52.4,24.4,52.9z"/>
			<path id="uuid-a67fef62-5d2c-4ad4-a4af-adf539d4be4a" class="st2" d="M69.2,53.3l-11.9-2.5c-0.3-6.7-0.6-13.3-0.9-20l0.2,0
				L69.2,53.3z"/>
			<path id="uuid-6e043cb8-63af-4bb6-ab62-8297007cf62c" class="st2" d="M28.7,71.2l17.1-9.5l7.5,9.5H28.7z"/>
			<path id="uuid-9f19ead5-c5fb-439c-81cd-c179279488d4" class="st2" d="M53.5,27.3l-7.8,12.4C43.5,33.8,41.3,28,39.1,22L53.5,27.3
				L53.5,27.3z"/>
			<path id="uuid-f82d2e1d-bb66-45ed-9519-fa270e3d4422" class="st2" d="M55.1,50.3c-2-0.4-3.8-0.8-5.6-1.2c-0.2,0-0.4-0.3-0.4-0.5
				c-0.8-2.1-1.6-4.2-2.4-6.4c-0.1-0.2-0.1-0.5,0-0.7c2.4-3.8,4.8-7.6,7.2-11.4c0.1-0.1,0.2-0.1,0.2-0.2
				C54.5,36.8,54.8,43.5,55.1,50.3L55.1,50.3z"/>
			<path id="uuid-af9e123a-6a38-42e9-adb3-9e6c5ad25f58" class="st2" d="M37.6,64.7l-6.4-7.6l24.5-2.7l0.1,0.1L37.6,64.7L37.6,64.7z
				"/>
			<path id="uuid-a78b5a3a-3f25-4127-8c9f-bc28566b51ac" class="st2" d="M36.6,15.1c0.1,0,0.2-0.1,0.3-0.1c3.3,0.1,6.7,0.1,10,0.2
				c0.3,0,0.5,0.1,0.7,0.4c1.8,3.1,3.5,6.2,5.3,9.5c-0.4-0.1-0.6-0.2-0.9-0.3c-4.4-1.6-8.7-3.2-13.1-4.7c-0.4-0.1-0.8-0.5-0.9-0.9
				C37.7,17.8,37.1,16.5,36.6,15.1z"/>
			<path id="uuid-117fdd61-cca2-4df4-b09a-f5aba8ff8d05" class="st2" d="M46.8,48.2l-14.5-8.4c0.9-1.7,1.7-3.3,2.6-5
				c0.2,0.1,0.4,0.1,0.6,0.2c2.4,1.1,4.8,2.2,7.3,3.3c0.2,0.1,0.4,0.3,0.6,0.5C44.4,41.8,45.6,44.9,46.8,48.2z"/>
			<path id="uuid-8a02bd70-3516-4105-bd6f-102d531abc6e" class="st2" d="M53.2,13c2.5-0.9,4.9-1.8,7.3-2.6c1-0.3,2-1,2.9-0.9
				c0.9,0.1,1.7,1,2.5,1.5c1.2,0.8,2.4,1.5,3.5,2.4l-16.2-0.3L53.2,13L53.2,13z"/>
			<path id="uuid-0e752e20-1230-4c93-a900-409ed96dc722" class="st2" d="M29.3,45.2l2.1-4.1c4,2.3,8,4.6,12,6.9l0,0.1
				C43.4,48.2,29.3,45.2,29.3,45.2z"/>
		</g>
	</g>
</g>
</svg>
