<svg xmlns="http://www.w3.org/2000/svg" width="60" height="60" viewBox="0 0 94.609 76.911">
  <path id="Path_400" data-name="Path 400" d="M787.513,2278.57a39.235,39.235,0,0,1-11.146,3.06,19.483,19.483,0,0,0,8.533-10.75,38.5,38.5,0,0,1-12.325,4.71A19.417,19.417,0,0,0,739.5,2293.3a55.151,55.151,0,0,1-40.008-20.28,19.417,19.417,0,0,0,6.008,25.91,19.244,19.244,0,0,1-8.792-2.43v.25a19.424,19.424,0,0,0,15.571,19.04,19.524,19.524,0,0,1-8.766.33,19.417,19.417,0,0,0,18.133,13.48,39.012,39.012,0,0,1-24.108,8.31,39.823,39.823,0,0,1-4.634-.27,54.952,54.952,0,0,0,29.75,8.72c35.709,0,55.229-29.58,55.229-55.23,0-.83-.02-1.67-.058-2.5a39.475,39.475,0,0,0,9.679-10.05Z" transform="translate(-692.904 -2269.449)" fill="#3d1673"/>
</svg>
