<svg xmlns="http://www.w3.org/2000/svg" xmlns:xlink="http://www.w3.org/1999/xlink" width="60" height="60" viewBox="0 0 100 100">
  <defs>
    <clipPath id="clip-path">
      <rect id="Rectangle_64" data-name="Rectangle 64" width="100" height="100" transform="translate(939 2258)" fill="#3d1673"/>
    </clipPath>
  </defs>
  <g id="Group_71" data-name="Group 71" transform="translate(-939 -2258)" clip-path="url(#clip-path)">
    <path id="Path_398" data-name="Path 398" d="M1036.92,2285.11a11.57,11.57,0,0,0-3.2-5.29,12.637,12.637,0,0,0-5.57-3.09c-7.83-2.06-39.175-2.06-39.175-2.06a319.575,319.575,0,0,0-39.125,1.95,13.263,13.263,0,0,0-5.575,3.17,12.032,12.032,0,0,0-3.242,5.32,129.876,129.876,0,0,0,0,45.78,11.767,11.767,0,0,0,3.229,5.29,12.993,12.993,0,0,0,5.588,3.1c7.929,2.05,39.125,2.05,39.125,2.05a320.449,320.449,0,0,0,39.175-1.95,12.752,12.752,0,0,0,5.57-3.1,11.467,11.467,0,0,0,3.19-5.29,117.956,117.956,0,0,0,2.09-22.89,110.83,110.83,0,0,0-2.08-22.99Zm-57.912,37.16v-28.53L1005.09,2308Z" fill="#3d1673"/>
  </g>
</svg>
